<svg width="788" height="250" viewBox="0 0 788 250" fill="none" xmlns="http://www.w3.org/2000/svg">
<path d="M80 229.5C69.8333 229.333 61 227.833 53.5 225C46.1667 222.167 40.5 217.75 36.5 211.75C32.5 205.917 30.5 198.583 30.5 189.75V153C30.5 147.333 29.3333 142.833 27 139.5C24.6667 136 21.25 133.5 16.75 132C12.25 130.333 6.66667 129.5 2.16067e-07 129.5V111.25C6.66667 111.083 12.25 110.25 16.75 108.75C21.25 107.25 24.6667 104.833 27 101.5C29.3333 98 30.5 93.5 30.5 88V51C30.5 44.3333 31.6667 38.5833 34 33.75C36.5 28.75 39.9167 24.6667 44.25 21.5C48.75 18.1667 54 15.6667 60 14C66 12.3333 72.6667 11.5 80 11.5V29.5C74.3333 29.6667 69.4167 30.5833 65.25 32.25C61.0833 33.9167 57.8333 36.4167 55.5 39.75C53.3333 43.0833 52.25 47.5 52.25 53V89C52.25 97.5 50 104.333 45.5 109.5C41 114.5 34.1667 117.833 25 119.5V121C34.3333 122.667 41.1667 126.083 45.5 131.25C50 136.25 52.25 143 52.25 151.5V188.25C52.25 193.583 53.3333 197.917 55.5 201.25C57.6667 204.75 60.8333 207.25 65 208.75C69.1667 210.417 74.1667 211.333 80 211.5V229.5ZM131.221 55.75C131.221 58.9167 131.054 62.1667 130.721 65.5C130.554 68.8333 130.304 71.8333 129.971 74.5H131.471C134.304 69.8333 137.887 66 142.221 63C146.554 60 151.387 57.75 156.721 56.25C162.054 54.5833 167.554 53.75 173.221 53.75C184.054 53.75 193.054 55.5 200.221 59C207.554 62.3333 213.054 67.5833 216.721 74.75C220.387 81.9167 222.221 91.25 222.221 102.75V190H200.471V104.25C200.471 93.4167 198.054 85.3333 193.221 80C188.387 74.6667 180.804 72 170.471 72C160.471 72 152.637 73.9167 146.971 77.75C141.304 81.4167 137.221 86.9167 134.721 94.25C132.387 101.417 131.221 110.25 131.221 120.75V190H109.221V-1.2517e-05H131.221V55.75ZM308.512 174.5C311.845 174.5 315.262 174.25 318.762 173.75C322.262 173.083 325.095 172.417 327.262 171.75V188.5C324.928 189.667 321.595 190.583 317.262 191.25C312.928 192.083 308.762 192.5 304.762 192.5C297.762 192.5 291.262 191.333 285.262 189C279.428 186.5 274.678 182.25 271.012 176.25C267.345 170.25 265.512 161.833 265.512 151V73H246.512V62.5L265.762 53.75L274.512 25.25H287.512V56H326.262V73H287.512V150.5C287.512 158.667 289.428 164.75 293.262 168.75C297.262 172.583 302.345 174.5 308.512 174.5ZM398.844 174.5C402.177 174.5 405.594 174.25 409.094 173.75C412.594 173.083 415.427 172.417 417.594 171.75V188.5C415.26 189.667 411.927 190.583 407.594 191.25C403.26 192.083 399.094 192.5 395.094 192.5C388.094 192.5 381.594 191.333 375.594 189C369.76 186.5 365.01 182.25 361.344 176.25C357.677 170.25 355.844 161.833 355.844 151V73H336.844V62.5L356.094 53.75L364.844 25.25H377.844V56H416.594V73H377.844V150.5C377.844 158.667 379.76 164.75 383.594 168.75C387.594 172.583 392.677 174.5 398.844 174.5ZM508.176 53.5C524.676 53.5 537.926 59.25 547.926 70.75C558.092 82.25 563.176 99.5833 563.176 122.75C563.176 137.917 560.842 150.75 556.176 161.25C551.676 171.583 545.259 179.417 536.926 184.75C528.759 189.917 519.092 192.5 507.926 192.5C501.092 192.5 495.009 191.583 489.676 189.75C484.342 187.917 479.759 185.583 475.926 182.75C472.259 179.75 469.092 176.5 466.426 173H464.926C465.259 175.833 465.592 179.417 465.926 183.75C466.259 188.083 466.426 191.833 466.426 195V250H444.426V56H462.426L465.426 74.25H466.426C469.092 70.4167 472.259 66.9167 475.926 63.75C479.759 60.5833 484.259 58.0833 489.426 56.25C494.759 54.4167 501.009 53.5 508.176 53.5ZM504.176 72C495.176 72 487.926 73.75 482.426 77.25C476.926 80.5833 472.926 85.6667 470.426 92.5C467.926 99.3333 466.592 108 466.426 118.5V122.75C466.426 133.75 467.592 143.083 469.926 150.75C472.259 158.417 476.176 164.25 481.676 168.25C487.342 172.25 495.009 174.25 504.676 174.25C512.842 174.25 519.509 172 524.676 167.5C530.009 163 533.926 156.917 536.426 149.25C539.092 141.417 540.426 132.5 540.426 122.5C540.426 107.167 537.426 94.9167 531.426 85.75C525.592 76.5833 516.509 72 504.176 72ZM572.352 56H595.852L624.852 132.25C626.518 136.75 628.018 141.083 629.352 145.25C630.852 149.417 632.185 153.5 633.352 157.5C634.518 161.333 635.435 165.083 636.102 168.75H637.102C638.102 164.583 639.685 159.167 641.852 152.5C644.018 145.667 646.268 138.833 648.602 132L675.852 56H699.602L641.852 208.5C638.685 216.833 634.935 224.083 630.602 230.25C626.435 236.583 621.268 241.417 615.102 244.75C609.102 248.25 601.768 250 593.102 250C589.102 250 585.602 249.75 582.602 249.25C579.602 248.917 577.018 248.5 574.852 248V230.5C576.685 230.833 578.852 231.167 581.352 231.5C584.018 231.833 586.768 232 589.602 232C594.768 232 599.185 231 602.852 229C606.685 227.167 609.935 224.417 612.602 220.75C615.268 217.25 617.518 213.083 619.352 208.25L626.352 190.5L572.352 56ZM707.543 211.5C713.376 211.333 718.293 210.417 722.293 208.75C726.46 207.083 729.626 204.5 731.793 201C734.126 197.667 735.293 193.333 735.293 188V151.75C735.293 143.25 737.543 136.5 742.043 131.5C746.543 126.333 753.376 122.917 762.543 121.25V119.75C753.376 118.083 746.543 114.75 742.043 109.75C737.543 104.583 735.293 97.75 735.293 89.25V52.75C735.293 47.25 734.21 42.8333 732.043 39.5C729.876 36.1667 726.71 33.6667 722.543 32C718.543 30.3333 713.543 29.5 707.543 29.5V11.5C715.21 11.5 722.043 12.3333 728.043 14C734.21 15.6667 739.46 18.1667 743.793 21.5C748.126 24.6667 751.376 28.75 753.543 33.75C755.876 38.75 757.043 44.5833 757.043 51.25V87.75C757.043 93.4167 758.21 98 760.543 101.5C762.876 104.833 766.293 107.333 770.793 109C775.46 110.5 781.043 111.25 787.543 111.25V129.5C781.043 129.5 775.46 130.333 770.793 132C766.293 133.5 762.876 135.917 760.543 139.25C758.21 142.583 757.043 147.083 757.043 152.75V190C757.043 198.833 754.96 206.167 750.793 212C746.626 217.833 740.793 222.167 733.293 225C725.96 228 717.376 229.5 707.543 229.5V211.5Z" fill="url(#paint0_linear_1_3)"/>
<defs>
<linearGradient id="paint0_linear_1_3" x1="92.5586" y1="18.0287" x2="361.126" y2="544.068" gradientUnits="userSpaceOnUse">
<stop stop-color="#3D7096"/>
<stop offset="1" stop-color="#253038"/>
</linearGradient>
</defs>
</svg>
