<svg xmlns="http://www.w3.org/2000/svg" width="436.875" height="118" viewBox="0 0 436.875 118">
  <path id="Path_1" data-name="Path 1" d="M49.875-68.25a31.312,31.312,0,0,1,14.313,3.188,23.114,23.114,0,0,1,9.938,9.75Q77.75-48.75,77.75-38.5V0H58.25V-35.5q0-8.125-3.562-12T44.625-51.375a17.6,17.6,0,0,0-8.312,1.938,13.447,13.447,0,0,0-5.75,5.938A22.315,22.315,0,0,0,28.5-33.25V0H9V-92.75H28.5v44.125L24.125-54.25A24.909,24.909,0,0,1,34.5-64.625,31.983,31.983,0,0,1,49.875-68.25Zm73,69.25Q111,1,104.375-5.062T97.75-23.125v-59h19.5v58.75a9.023,9.023,0,0,0,2.25,6.563,8.151,8.151,0,0,0,6.125,2.313A12.532,12.532,0,0,0,133.5-17l5.25,13.75a21.423,21.423,0,0,1-7.187,3.188A35.188,35.188,0,0,1,122.875,1Zm-35.5-51.75v-15H134v15ZM175.75,1q-11.875,0-18.5-6.062t-6.625-18.062v-59h19.5v58.75a9.023,9.023,0,0,0,2.25,6.563A8.151,8.151,0,0,0,178.5-14.5a12.532,12.532,0,0,0,7.875-2.5l5.25,13.75a21.423,21.423,0,0,1-7.187,3.188A35.188,35.188,0,0,1,175.75,1Zm-35.5-51.75v-15h46.625v15ZM242.375,1A28.8,28.8,0,0,1,227.5-2.75a24.949,24.949,0,0,1-9.937-11.437Q214-21.875,214-33.625q0-11.875,3.375-19.5a23.958,23.958,0,0,1,9.75-11.375,29.557,29.557,0,0,1,15.25-3.75,33.827,33.827,0,0,1,17.063,4.313,31.777,31.777,0,0,1,12,12.063,36.1,36.1,0,0,1,4.438,18.25,36.365,36.365,0,0,1-4.437,18.375,31.323,31.323,0,0,1-12,12A34.219,34.219,0,0,1,242.375,1Zm-39.75,23.25v-91.5H221.25V-53.5l-.375,20,1.25,19.875V24.25ZM239-15a16.768,16.768,0,0,0,8.688-2.25,16.594,16.594,0,0,0,6.125-6.437,20.249,20.249,0,0,0,2.313-9.937,20.164,20.164,0,0,0-2.312-10A16.707,16.707,0,0,0,247.688-50,16.768,16.768,0,0,0,239-52.25,17.1,17.1,0,0,0,230.25-50a16.122,16.122,0,0,0-6.125,6.375,20.62,20.62,0,0,0-2.25,10,20.707,20.707,0,0,0,2.25,9.938,16.021,16.021,0,0,0,6.125,6.438A17.1,17.1,0,0,0,239-15Zm80.625,39.25Q308,24.25,302,18.438T296,1.875V-20.75a5.89,5.89,0,0,0-1.5-4.437,5.539,5.539,0,0,0-4-1.437h-4.125v-15.25H290.5a5.406,5.406,0,0,0,4-1.5A5.927,5.927,0,0,0,296-47.75V-70.375Q296-81.25,302-87t17.625-5.75h7.25V-77.5h-2.25q-4.5,0-6.812,2.375T315.5-68.25v20a20.286,20.286,0,0,1-1.5,8.625,8.988,8.988,0,0,1-4.687,4.5,30.531,30.531,0,0,1-8.187,2v-2.25a26.562,26.562,0,0,1,8.188,1.938A9.264,9.264,0,0,1,314-28.875a20.286,20.286,0,0,1,1.5,8.625v20q0,4.5,2.313,6.875T324.625,9h2.25V24.25Zm26.625,1a34.139,34.139,0,0,1-10.375-1.625,22.907,22.907,0,0,1-8.375-4.5L334.625,5.25a16.742,16.742,0,0,0,5.188,3.125A16.168,16.168,0,0,0,345.625,9.5a10.256,10.256,0,0,0,6.563-1.937,16.84,16.84,0,0,0,4.438-6.437l3.5-8.25,1.5-2.125,24.125-58H404.5L374.125,4.125a42.344,42.344,0,0,1-7.437,12.75,23.523,23.523,0,0,1-9.25,6.5A31.994,31.994,0,0,1,346.25,25.25Zm11.5-22.625-30-69.875h20.125L371.125-11ZM412.625,24.25h-7.25V9h2.25q4.5,0,6.813-2.375T416.75-.25v-20a19.574,19.574,0,0,1,1.563-8.625A9.593,9.593,0,0,1,423-33.437a25.833,25.833,0,0,1,8.125-1.937v2.25a29.622,29.622,0,0,1-8.125-2,9.3,9.3,0,0,1-4.687-4.5,19.574,19.574,0,0,1-1.562-8.625v-20q0-4.5-2.312-6.875T407.625-77.5h-2.25V-92.75h7.25q11.75,0,17.688,5.75t5.938,16.625V-47.75a5.927,5.927,0,0,0,1.5,4.375,5.406,5.406,0,0,0,4,1.5h4.125v15.25H441.75a5.539,5.539,0,0,0-4,1.438,5.89,5.89,0,0,0-1.5,4.438V1.875q0,10.75-5.937,16.563T412.625,24.25Z" transform="translate(-9 92.75)" fill="#b0aadd"/>
</svg>
